# Blender 4.0.2
# www.blender.org
mtllib Door.mtl
o Batch_1
v -66.500702 149.849976 -43.757198
v -66.500702 149.849976 -127.022797
v -45.500702 149.849976 -102.652374
v -56.500702 167.849976 -102.652374
v -76.500702 167.849976 -102.652374
v -87.500702 149.849976 -102.652374
v -76.500702 131.849976 -102.652374
v -56.500702 131.849976 -102.652374
v -66.500702 149.849976 -31.571987
v -66.500702 149.849976 51.693615
v -45.500702 149.849976 27.323193
v -56.500702 167.849976 27.323193
v -76.500702 167.849976 27.323193
v -87.500702 149.849976 27.323193
v -76.500702 131.849976 27.323193
v -56.500702 131.849976 27.323193
vn -0.6875 0.4201 -0.5924
vn -0.0000 0.8044 -0.5941
vn 0.6875 0.4201 -0.5924
vn 0.6875 -0.4201 -0.5924
vn -0.0000 -0.8044 -0.5941
vn -0.6875 -0.4201 -0.5924
vn -0.8163 0.4989 0.2911
vn -0.8163 -0.4989 0.2911
vn -0.0000 -0.9563 0.2923
vn -0.6875 0.4201 0.5924
vn -0.6875 -0.4201 0.5924
vn -0.0000 -0.8044 0.5941
vn -0.8163 0.4989 -0.2911
vn -0.0000 0.9563 -0.2923
vn 0.8163 0.4989 -0.2911
vn 0.8163 -0.4989 -0.2911
vn -0.0000 -0.9563 -0.2923
vn -0.8163 -0.4989 -0.2911
vn -0.0000 0.9563 0.2923
vn 0.8163 0.4989 0.2911
vn -0.0000 0.8044 0.5941
vn 0.6875 0.4201 0.5924
vn 0.8163 -0.4989 0.2911
vn 0.6875 -0.4201 0.5924
vt 1.000000 0.500000
vt 0.750000 1.000000
vt 0.500000 0.500000
vt 0.250000 1.000000
vt 0.000000 0.500000
vt 0.250000 0.000000
vt 0.750000 0.000000
s 0
usemtl BinMaterial_0.002
f 11/1/1 16/2/1 10/3/1
f 16/2/2 15/4/2 10/3/2
f 10/3/3 15/4/3 14/5/3
f 14/5/4 13/6/4 10/3/4
f 13/6/5 12/7/5 10/3/5
f 10/3/6 12/7/6 11/1/6
f 16/2/7 11/1/7 9/3/7
f 11/1/8 12/7/8 9/3/8
f 9/3/9 12/7/9 13/6/9
f 8/2/10 3/1/10 2/3/10
f 3/1/11 4/7/11 2/3/11
f 2/3/12 4/7/12 5/6/12
f 3/1/13 8/2/13 1/3/13
f 8/2/14 7/4/14 1/3/14
f 1/3/15 7/4/15 6/5/15
f 6/5/16 5/6/16 1/3/16
f 5/6/17 4/7/17 1/3/17
f 1/3/18 4/7/18 3/1/18
f 16/2/19 9/3/19 15/4/19
f 9/3/20 14/5/20 15/4/20
f 8/2/21 2/3/21 7/4/21
f 2/3/22 6/5/22 7/4/22
f 9/3/23 13/6/23 14/5/23
f 5/6/24 6/5/24 2/3/24
o Batch_0
v -100.000000 0.000000 -89.468452
v -100.000000 0.000000 15.000000
v -100.000000 300.000000 -89.468452
v -100.000000 300.000000 15.000000
v 100.000000 0.000000 -89.468452
v 100.000000 0.000000 15.000000
v 100.000000 300.000000 -89.468452
v 100.000000 300.000000 15.000000
v 0.000000 300.000000 -89.468452
v 0.000000 300.000000 15.000000
v 0.000000 0.000000 -89.468452
v 0.000000 0.000000 15.000000
v -100.000000 150.000000 15.000000
v -100.000000 150.000000 -89.468452
v 0.000000 150.000000 15.000000
v 0.000000 150.000000 -89.468452
v 100.000000 150.000000 15.000000
v 100.000000 150.000000 -89.468452
vn -0.0000 -0.0000 1.0000
vn -1.0000 -0.0000 -0.0000
vn -0.0000 -0.0000 -1.0000
vn 1.0000 -0.0000 -0.0000
vn -0.0000 1.0000 -0.0000
vn -0.0000 -1.0000 -0.0000
vt 0.000000 1.000000
vt 0.492188 1.000000
vt 0.000000 0.500000
vt 0.492188 0.500000
vt 0.000000 0.000000
vt 0.492188 0.000000
vt 1.000000 1.000000
vt 0.507813 1.000000
vt 1.000000 0.500000
vt 0.507813 0.500000
vt 1.000000 0.000000
vt 0.507813 0.000000
s 0
usemtl BinMaterial_1.002
f 17/8/25 27/9/25 30/10/25
f 27/9/25 32/11/25 30/10/25
f 30/10/25 32/11/25 19/12/25
f 32/11/25 25/13/25 19/12/25
f 23/12/25 25/13/25 34/10/25
f 25/13/25 32/11/25 34/10/25
f 34/10/25 32/11/25 21/8/25
f 32/11/25 27/9/25 21/8/25
f 21/14/26 22/15/26 34/16/26
f 22/15/26 33/17/26 34/16/26
f 34/16/26 33/17/26 23/18/26
f 33/17/26 24/19/26 23/18/26
f 22/8/27 28/9/27 33/10/27
f 28/9/27 31/11/27 33/10/27
f 33/10/27 31/11/27 24/12/27
f 31/11/27 26/13/27 24/12/27
f 20/12/27 26/13/27 29/10/27
f 26/13/27 31/11/27 29/10/27
f 29/10/27 31/11/27 18/8/27
f 31/11/27 28/9/27 18/8/27
f 18/14/28 17/15/28 29/16/28
f 17/15/28 30/17/28 29/16/28
f 29/16/28 30/17/28 20/18/28
f 30/17/28 19/19/28 20/18/28
f 27/15/29 28/19/29 21/14/29
f 28/19/29 22/18/29 21/14/29
f 25/15/30 26/19/30 19/14/30
f 26/19/30 20/18/30 19/14/30
f 26/15/30 25/19/30 24/14/30
f 25/19/30 23/18/30 24/14/30
f 28/15/29 27/19/29 18/14/29
f 27/19/29 17/18/29 18/14/29
